<svg width="20" height="17" viewBox="0 0 20 17" fill="none" xmlns="http://www.w3.org/2000/svg">
<path d="M20 2.2977C19.2642 2.62437 18.4733 2.84437 17.6433 2.94354C18.4908 2.43603 19.1417 1.63187 19.4475 0.673535C18.655 1.14354 17.7767 1.4852 16.8417 1.66937C16.0942 0.871869 15.0267 0.373535 13.8467 0.373535C11.1975 0.373535 9.25083 2.8452 9.84917 5.41104C6.44 5.2402 3.41667 3.60687 1.3925 1.12437C0.3175 2.96854 0.835 5.38103 2.66167 6.6027C1.99 6.58103 1.35667 6.39687 0.804167 6.08937C0.759167 7.9902 2.12167 9.76853 4.095 10.1644C3.5175 10.321 2.885 10.3577 2.24167 10.2344C2.76333 11.8644 4.27833 13.0502 6.075 13.0835C4.35 14.436 2.17667 15.0402 0 14.7835C1.81583 15.9477 3.97333 16.6269 6.29 16.6269C13.9083 16.6269 18.2125 10.1927 17.9525 4.42187C18.7542 3.8427 19.45 3.1202 20 2.2977Z" fill="white"/>
</svg>
