<svg width="192" height="185" viewBox="0 0 192 185" fill="none" xmlns="http://www.w3.org/2000/svg">
<g clip-path="url(#clip0_202_64)">
<path fill-rule="evenodd" clip-rule="evenodd" d="M148.235 47.1246C148.235 47.1246 173.049 35.8585 174.424 27.1895C175.257 21.9892 166.472 15.034 161.05 16.5888C154.853 18.3968 148.235 47.1246 148.235 47.1246Z" fill="#6236B3"/>
<path fill-rule="evenodd" clip-rule="evenodd" d="M148.3 47.2659C148.3 47.2659 135.527 32.8784 142.67 18.1434C142.67 18.1434 148.723 11.8242 156.359 18.644C163.996 25.4638 148.3 47.2659 148.3 47.2659Z" fill="#766DCC"/>
<path fill-rule="evenodd" clip-rule="evenodd" d="M148.336 47.2481C148.336 47.2481 165.293 56.4884 178.31 46.3942C178.31 46.3942 183.245 39.1799 174.852 33.2552C166.46 27.3306 148.336 47.2481 148.336 47.2481Z" fill="#766DCC"/>
<path fill-rule="evenodd" clip-rule="evenodd" d="M148.318 46.9891C148.442 47.0278 148.57 47.0554 148.699 47.0716C148.88 47.0618 149.059 47.0342 149.235 46.9891C151.922 46.5459 154.564 45.8639 157.127 44.9514C159.958 43.9123 162.714 42.6845 165.377 41.2765C165.385 41.2727 165.393 41.2672 165.4 41.2604C165.406 41.2536 165.411 41.2456 165.414 41.2368C165.418 41.228 165.419 41.2187 165.419 41.2093C165.419 41.2 165.416 41.1908 165.412 41.1823C165.399 41.1707 165.382 41.1643 165.365 41.1643C165.347 41.1643 165.33 41.1707 165.317 41.1823C162.613 42.4976 159.83 43.6481 156.984 44.6275C154.435 45.5139 151.818 46.1954 149.157 46.6652C148.979 46.6793 148.801 46.7089 148.628 46.7536C148.508 46.804 148.394 46.8671 148.288 46.942C148.284 46.948 148.282 46.9552 148.282 46.9626C148.282 46.97 148.284 46.9772 148.288 46.9832C148.297 46.9888 148.308 46.9909 148.318 46.9891Z" fill="#292160"/>
<path fill-rule="evenodd" clip-rule="evenodd" d="M148.509 46.9835C148.574 47.0714 148.652 47.1489 148.741 47.2132C148.832 47.2503 148.928 47.2761 149.026 47.2897C150.747 47.6527 152.508 47.7854 154.264 47.6843C155.72 47.6263 157.171 47.4808 158.609 47.2485C160.044 47.0157 161.462 46.6891 162.853 46.2709C162.885 46.2623 162.913 46.2413 162.93 46.2126C162.946 46.1839 162.951 46.1498 162.942 46.1178C162.934 46.0857 162.912 46.0584 162.883 46.0419C162.854 46.0253 162.82 46.0208 162.787 46.0294C160.461 46.6101 158.086 46.9865 155.693 47.1543C153.551 47.3648 151.39 47.2856 149.27 46.9187C149.135 46.8758 148.995 46.8463 148.854 46.8304C148.744 46.8418 148.636 46.8676 148.532 46.9069C148.525 46.9021 148.517 46.8995 148.509 46.8995C148.5 46.8995 148.492 46.9021 148.485 46.9069C148.477 46.9116 148.471 46.9189 148.467 46.9275C148.464 46.9361 148.464 46.9456 148.466 46.9545C148.469 46.9633 148.475 46.9709 148.482 46.9762C148.49 46.9815 148.499 46.984 148.509 46.9835Z" fill="#292160"/>
<path fill-rule="evenodd" clip-rule="evenodd" d="M148.598 46.9304C148.644 46.7364 148.678 46.5397 148.699 46.3415C148.708 46.2179 148.708 46.0939 148.699 45.9704C148.473 43.1671 148.205 40.3992 148.193 37.6312C148.157 35.5676 148.317 33.5052 148.669 31.4711C148.671 31.4625 148.671 31.4538 148.669 31.4453C148.667 31.4367 148.664 31.4287 148.659 31.4215C148.654 31.4144 148.648 31.4083 148.64 31.4037C148.633 31.399 148.624 31.3959 148.616 31.3945C148.607 31.3919 148.597 31.3912 148.588 31.3925C148.579 31.3938 148.57 31.3971 148.562 31.4021C148.554 31.4072 148.547 31.4138 148.542 31.4216C148.537 31.4295 148.534 31.4383 148.532 31.4475C148.052 33.4796 147.791 35.5564 147.753 37.643C147.746 40.4463 147.917 43.2472 148.265 46.0293C148.269 46.1519 148.283 46.2739 148.306 46.3945C148.365 46.5816 148.437 46.7645 148.521 46.9422C148.522 46.952 148.527 46.9611 148.535 46.9676C148.542 46.9741 148.552 46.9776 148.562 46.9775C148.572 46.974 148.581 46.9677 148.587 46.9593C148.594 46.9509 148.597 46.9409 148.598 46.9304Z" fill="#292160"/>
<path fill-rule="evenodd" clip-rule="evenodd" d="M148.175 46.7361C148.104 46.4063 148.062 46.0824 147.979 45.7585C147.943 45.6231 147.89 45.4935 147.842 45.358C147.223 43.5954 146.694 41.8028 146.259 39.987C145.707 37.7111 145.309 35.4013 145.068 33.073C145.067 33.0616 145.061 33.0511 145.053 33.0435C145.044 33.0359 145.032 33.0317 145.021 33.0318C145.015 33.0315 145.009 33.0326 145.004 33.035C144.998 33.0375 144.994 33.0412 144.99 33.0459C144.987 33.0505 144.984 33.056 144.983 33.0618C144.983 33.0675 144.983 33.0734 144.985 33.0789C145.102 35.4279 145.399 37.7647 145.872 40.0695C146.265 41.9135 146.788 43.7279 147.437 45.4994C147.485 45.6289 147.527 45.7644 147.586 45.894C147.735 46.2002 147.919 46.4829 148.092 46.7597C148.095 46.7634 148.1 46.7665 148.104 46.7685C148.109 46.7706 148.114 46.7717 148.119 46.7717C148.124 46.7717 148.129 46.7706 148.134 46.7685C148.138 46.7665 148.142 46.7634 148.146 46.7597C148.152 46.7584 148.158 46.7556 148.163 46.7515C148.169 46.7474 148.173 46.7421 148.175 46.7361Z" fill="#292160"/>
<path fill-rule="evenodd" clip-rule="evenodd" d="M148.866 46.5829C148.96 46.5356 149.052 46.4825 149.14 46.4239C149.461 46.1582 149.761 45.8688 150.038 45.5582C151.48 44.0675 152.831 42.4943 154.086 40.8467C156.436 37.7656 158.574 34.5309 160.484 31.1648C160.494 31.1532 160.499 31.1386 160.499 31.1236C160.499 31.1085 160.494 31.0939 160.484 31.0823C160.472 31.0712 160.456 31.0649 160.439 31.0649C160.423 31.0649 160.407 31.0712 160.395 31.0823C158.755 33.856 156.967 36.5414 155.038 39.1271C153.511 41.2014 151.87 43.191 150.122 45.087C149.759 45.4698 149.372 45.8173 149.05 46.206C148.968 46.3092 148.893 46.4174 148.824 46.5299C148.818 46.5373 148.814 46.5467 148.814 46.5564C148.814 46.5661 148.818 46.5755 148.824 46.5829C148.83 46.5865 148.838 46.5884 148.845 46.5884C148.852 46.5884 148.859 46.5865 148.866 46.5829Z" fill="#292160"/>
<path fill-rule="evenodd" clip-rule="evenodd" d="M148.205 46.265C147.788 45.9764 148.396 46.0589 147.884 46.0471C147.836 46.0471 147.8 46.0942 147.759 46.1236C147.173 46.5758 146.618 47.0657 146.098 47.5901C141.961 51.5005 136.926 57.7726 132.266 64.6336C129.032 69.3169 126.121 74.2102 123.552 79.2802C122.474 81.4644 121.515 83.7035 120.677 85.9881C120.667 86.0056 120.66 86.025 120.658 86.0451C120.656 86.0653 120.659 86.0856 120.665 86.1047C120.672 86.1238 120.682 86.1413 120.696 86.1561C120.71 86.1708 120.727 86.1824 120.746 86.19C120.765 86.1977 120.786 86.2012 120.806 86.2004C120.826 86.1996 120.846 86.1945 120.865 86.1854C120.883 86.1763 120.899 86.1635 120.912 86.1477C120.925 86.132 120.934 86.1137 120.939 86.0941C121.832 84.0211 122.939 81.8421 124.147 79.5806C126.811 74.5979 129.751 69.7652 132.956 65.1048C137.622 58.3262 142.67 52.1484 146.735 48.2497C147.283 47.7196 147.842 47.2603 148.324 46.7773C148.354 46.742 148.407 46.7185 148.419 46.6655C148.485 46.1708 148.467 46.7774 148.247 46.3239C148.247 46.3239 148.247 46.2826 148.247 46.2709C148.247 46.2591 148.217 46.2473 148.205 46.265Z" fill="#292160"/>
<path fill-rule="evenodd" clip-rule="evenodd" d="M139.241 55.8231C139.149 55.8504 139.07 55.9114 139.021 55.9939C139.002 56.0345 138.992 56.0787 138.992 56.1235C138.992 56.1683 139.002 56.2125 139.021 56.2531C139.162 56.6875 139.331 57.1124 139.527 57.5251C139.688 57.8726 139.902 58.279 140.158 58.703C141.461 60.9939 143.973 64.2742 148.128 65.8349C151.437 67.0775 155.8 67.2365 161.436 64.9044C161.487 64.8829 161.533 64.8515 161.57 64.812C161.608 64.7725 161.638 64.7258 161.657 64.6747C161.698 64.5747 161.698 64.4626 161.657 64.3626C159.443 60.629 156.057 57.7132 152.014 56.0587C148.337 54.6753 144.316 54.4592 140.509 55.4403C140.182 55.5169 139.843 55.5935 139.509 55.6995L139.265 55.7819L139.241 55.8231ZM139.837 56.4121L140.682 56.2001C144.331 55.2628 148.185 55.4686 151.711 56.789C155.44 58.3144 158.593 60.9565 160.728 64.3449C155.538 66.412 151.509 66.2648 148.419 65.1105C144.461 63.6323 142.092 60.4992 140.825 58.332C140.453 57.7114 140.117 57.0704 139.819 56.4121H139.837Z" fill="#292160"/>
<path fill-rule="evenodd" clip-rule="evenodd" d="M160.99 64.7339C160.685 64.3623 160.339 64.0246 159.96 63.7269C159.029 63.1211 158.03 62.6232 156.984 62.2428C153.55 60.794 149.348 59.6751 146.628 58.7799C144.598 58.1321 142.682 57.2369 140.676 56.5243C140.176 56.3417 139.664 56.1886 139.146 56.0355C139.091 56.0227 139.032 56.0306 138.982 56.0577C138.932 56.0847 138.894 56.129 138.875 56.1822C138.856 56.2353 138.857 56.2935 138.879 56.3457C138.9 56.398 138.94 56.4405 138.991 56.4654C139.331 56.6126 139.664 56.7775 140.003 56.9189C141.372 57.5078 142.747 58.0614 144.128 58.615C144.872 58.9094 145.622 59.2039 146.39 59.4454C148.729 60.211 152.157 61.165 155.258 62.3076C156.919 62.8965 158.419 63.7092 159.734 64.3276C160.139 64.5219 160.526 64.6279 160.889 64.8105C160.898 64.8188 160.909 64.8234 160.922 64.8234C160.934 64.8234 160.945 64.8188 160.954 64.8105C160.963 64.8102 160.972 64.8075 160.979 64.8027C160.987 64.7979 160.992 64.7911 160.996 64.7831C161 64.7752 161.001 64.7664 161 64.7577C160.999 64.749 160.996 64.7408 160.99 64.7339Z" fill="#292160"/>
<path fill-rule="evenodd" clip-rule="evenodd" d="M41.0986 47.1246C41.0986 47.1246 16.2907 35.8585 14.9098 27.1895C14.0765 21.9892 22.8676 15.034 28.2899 16.5888C34.486 18.3968 41.0986 47.1246 41.0986 47.1246Z" fill="#6236B3"/>
<path fill-rule="evenodd" clip-rule="evenodd" d="M41.0332 47.2659C41.0332 47.2659 53.8062 32.8784 46.6638 18.1434C46.6638 18.1434 40.6106 11.8242 32.9742 18.644C25.3377 25.4638 41.0332 47.2659 41.0332 47.2659Z" fill="#766DCC"/>
<path fill-rule="evenodd" clip-rule="evenodd" d="M41.0034 47.2481C41.0034 47.2481 24.0461 56.4884 11.0588 46.3942C11.0588 46.3942 6.13056 39.1799 14.5169 33.2552C22.9033 27.3306 41.0034 47.2481 41.0034 47.2481Z" fill="#766DCC"/>
<path fill-rule="evenodd" clip-rule="evenodd" d="M41.0153 46.9892C40.8931 47.0278 40.7676 47.0554 40.6403 47.0716C40.4575 47.0619 40.276 47.0343 40.0987 46.9892C37.4115 46.5452 34.7701 45.8632 32.2063 44.9515C29.3763 43.9111 26.6202 42.6833 23.9568 41.2766C23.9432 41.2665 23.9336 41.252 23.9298 41.2356C23.926 41.2192 23.9283 41.202 23.9362 41.187C23.9441 41.1721 23.9571 41.1605 23.9729 41.1542C23.9887 41.148 24.0062 41.1475 24.0223 41.1529C26.7259 42.4692 29.5088 43.6198 32.3551 44.5981C34.9026 45.4838 37.5181 46.1652 40.1761 46.6358C40.3568 46.6504 40.536 46.6799 40.7118 46.7241C40.8297 46.7744 40.9415 46.8376 41.0451 46.9126C41.0551 46.914 41.0642 46.919 41.0708 46.9266C41.0773 46.9342 41.0809 46.9438 41.0808 46.9538C41.0796 46.9608 41.0767 46.9674 41.0726 46.9732C41.0684 46.979 41.063 46.9837 41.0567 46.9871C41.0504 46.9905 41.0434 46.9925 41.0362 46.9928C41.0291 46.9932 41.0219 46.9919 41.0153 46.9892Z" fill="#292160"/>
<path fill-rule="evenodd" clip-rule="evenodd" d="M40.8189 46.9833C40.7296 47.0716 40.6939 47.1482 40.5808 47.213C40.4894 47.2508 40.3934 47.2766 40.2951 47.2895C38.575 47.6525 36.8133 47.7852 35.0574 47.6841C33.6034 47.6262 32.1544 47.4806 30.7184 47.2483C29.2815 47.0155 27.8619 46.6889 26.4686 46.2707C26.4363 46.2613 26.409 46.2396 26.3928 46.2103C26.3766 46.1811 26.3728 46.1466 26.3823 46.1146C26.3918 46.0826 26.4137 46.0556 26.4433 46.0396C26.4729 46.0236 26.5077 46.0199 26.54 46.0292C28.8804 46.6128 31.2687 46.9893 33.6765 47.1541C35.8181 47.3644 37.9787 47.2852 40.0987 46.9185C40.234 46.8745 40.3737 46.8449 40.5154 46.8302C40.6236 46.8413 40.7297 46.8671 40.8308 46.9067C40.8387 46.9014 40.8481 46.8986 40.8576 46.8986C40.8672 46.8986 40.8765 46.9014 40.8844 46.9067C40.8947 46.9153 40.901 46.9276 40.9022 46.9409C40.9033 46.9541 40.899 46.9673 40.8903 46.9774C40.8817 46.9876 40.8693 46.9939 40.8559 46.995C40.8425 46.9961 40.8292 46.9919 40.8189 46.9833Z" fill="#292160"/>
<path fill-rule="evenodd" clip-rule="evenodd" d="M40.7415 46.9304C40.693 46.7365 40.6573 46.5398 40.6344 46.3414C40.6354 46.2172 40.6454 46.0932 40.6641 45.9704C40.8903 43.1671 41.1522 40.3992 41.1641 37.6312C41.1991 35.5679 41.0417 33.5058 40.6939 31.471C40.6939 31.4539 40.7008 31.4374 40.7131 31.4252C40.7253 31.4131 40.742 31.4062 40.7594 31.4062C40.7767 31.4062 40.7934 31.4131 40.8057 31.4252C40.8179 31.4374 40.8248 31.4539 40.8248 31.471C41.2957 33.4963 41.5491 35.5651 41.5807 37.643C41.5895 40.4461 41.4205 43.2471 41.0748 46.0293C41.0652 46.1517 41.0493 46.2736 41.0272 46.3944C40.9702 46.5814 40.9006 46.7644 40.8189 46.9421C40.8189 46.9421 40.8189 46.9775 40.7772 46.9775C40.7355 46.9775 40.7355 46.9539 40.7415 46.9304Z" fill="#292160"/>
<path fill-rule="evenodd" clip-rule="evenodd" d="M41.1641 46.7361C41.2355 46.4063 41.2713 46.0824 41.3605 45.7585C41.3963 45.623 41.4498 45.4934 41.4974 45.358C42.115 43.5953 42.6415 41.8026 43.0747 39.987C43.6265 37.7111 44.0242 35.4013 44.2651 33.073C44.2666 33.0615 44.2722 33.051 44.281 33.0434C44.2898 33.0358 44.3011 33.0316 44.3127 33.0317C44.3243 33.0332 44.3349 33.0388 44.3426 33.0475C44.3503 33.0561 44.3545 33.0673 44.3544 33.0789C44.2353 35.428 43.9368 37.7648 43.4616 40.0694C43.071 41.9133 42.55 43.7278 41.9022 45.4993C41.8486 45.6289 41.8069 45.7643 41.7474 45.8939C41.5962 46.1921 41.4272 46.4812 41.2415 46.7596C41.2387 46.7633 41.2351 46.7663 41.231 46.7683C41.2269 46.7703 41.2223 46.7714 41.2177 46.7714C41.2131 46.7714 41.2085 46.7703 41.2044 46.7683C41.2003 46.7663 41.1967 46.7633 41.1939 46.7596C41.1872 46.7589 41.1808 46.7563 41.1756 46.7521C41.1703 46.7479 41.1663 46.7424 41.1641 46.7361Z" fill="#292160"/>
<path fill-rule="evenodd" clip-rule="evenodd" d="M40.4737 46.5829C40.3772 46.5356 40.2838 46.4825 40.194 46.4239C39.8746 46.1581 39.5761 45.8687 39.3012 45.5582C37.8566 44.0705 36.5049 42.4971 35.2538 40.8468C32.9032 37.7656 30.7655 34.5309 28.8554 31.1648C28.8475 31.1507 28.8456 31.1342 28.85 31.1187C28.8545 31.1032 28.865 31.0902 28.8792 31.0823C28.8934 31.0745 28.9101 31.0726 28.9258 31.077C28.9414 31.0815 28.9546 31.0918 28.9625 31.1059C30.6069 33.877 32.3949 36.5621 34.3193 39.1506C35.8466 41.2265 37.4899 43.2162 39.2416 45.1106C39.5988 45.4934 39.9916 45.8409 40.313 46.2295C40.3963 46.3297 40.4558 46.4416 40.5332 46.5535C40.5403 46.5605 40.5443 46.57 40.5443 46.58C40.5443 46.5899 40.5403 46.5994 40.5332 46.6065C40.5261 46.6135 40.5165 46.6174 40.5064 46.6174C40.4964 46.6174 40.4868 46.6135 40.4796 46.6065L40.4737 46.5829Z" fill="#292160"/>
<path fill-rule="evenodd" clip-rule="evenodd" d="M41.1344 46.265C41.545 45.9764 40.9379 46.0589 41.4498 46.0471C41.5034 46.0471 41.5391 46.0942 41.5808 46.1236C42.1637 46.5788 42.7183 47.0685 43.2414 47.5901C47.4078 51.5005 52.4075 57.7726 57.0679 64.6336C60.3011 69.317 63.2122 74.2102 65.7816 79.2802C66.8565 81.4655 67.8161 83.7045 68.6565 85.9881C68.6632 86.0055 68.6663 86.024 68.6657 86.0426C68.6651 86.0612 68.6609 86.0796 68.6531 86.0965C68.6454 86.1135 68.6343 86.1288 68.6206 86.1415C68.6069 86.1542 68.5907 86.1641 68.5731 86.1707C68.5384 86.1844 68.4996 86.184 68.4651 86.1697C68.4306 86.1554 68.4031 86.1282 68.3886 86.0941C67.5018 84.0211 66.3887 81.8421 65.1805 79.5806C62.5191 74.5966 59.5782 69.7638 56.3715 65.1048C51.7051 58.3262 46.6578 52.1484 42.5986 48.2497C42.045 47.7196 41.4855 47.2603 41.0094 46.7773C40.9737 46.742 40.9201 46.7185 40.9141 46.6655C40.8487 46.1708 40.8606 46.7774 41.0808 46.3239C41.077 46.3206 41.0739 46.3165 41.0719 46.3119C41.0698 46.3073 41.0687 46.3024 41.0687 46.2974C41.0687 46.2924 41.0698 46.2874 41.0719 46.2828C41.0739 46.2783 41.077 46.2742 41.0808 46.2709C41.0876 46.2638 41.0967 46.2593 41.1065 46.2582C41.1163 46.2571 41.1262 46.2595 41.1344 46.265Z" fill="#292160"/>
<path fill-rule="evenodd" clip-rule="evenodd" d="M50.0922 55.8234C50.1385 55.836 50.1818 55.8576 50.2196 55.8869C50.2574 55.9162 50.2889 55.9527 50.3124 55.9942C50.3315 56.0347 50.3414 56.0789 50.3414 56.1237C50.3414 56.1685 50.3315 56.2127 50.3124 56.2533C50.1751 56.6889 50.006 57.114 49.8065 57.5254C49.6458 57.8728 49.4374 58.2792 49.2113 58.7032C47.9078 60.9941 45.3901 64.2745 41.2356 65.8351C37.9262 67.0778 33.5694 67.2368 27.9328 64.9046C27.8817 64.8841 27.8356 64.853 27.7976 64.8134C27.7596 64.7737 27.7306 64.7265 27.7126 64.6749C27.6893 64.6261 27.6772 64.5728 27.6772 64.5189C27.6772 64.4649 27.6893 64.4116 27.7126 64.3628C29.9244 60.6276 33.3108 57.7112 37.3548 56.0589C41.0298 54.6752 45.0493 54.4591 48.8541 55.4406C49.1815 55.5171 49.5208 55.5937 49.8541 55.6997L50.0981 55.7821L50.0922 55.8234ZM49.497 56.4123L48.6577 56.2003C45.0063 55.2634 41.1511 55.4691 37.6227 56.7892C33.8944 58.3163 30.7417 60.9581 28.6054 64.3451C33.7955 66.4123 37.831 66.265 40.9142 65.1108C44.8722 63.6325 47.2471 60.4994 48.5089 58.3322C48.8832 57.713 49.2191 57.0718 49.5148 56.4123H49.497Z" fill="#292160"/>
<path fill-rule="evenodd" clip-rule="evenodd" d="M28.3494 64.7337C28.6526 64.3621 28.9959 64.0244 29.3732 63.7266C30.3048 63.1213 31.3032 62.6233 32.3492 62.2425C35.7775 60.7937 39.9797 59.6748 42.6997 58.7796C44.7294 58.1318 46.6459 57.2366 48.6517 56.524C49.1577 56.3415 49.6695 56.1883 50.1814 56.0352C50.2108 56.021 50.2429 56.013 50.2756 56.0119C50.3083 56.0107 50.3408 56.0164 50.3711 56.0286C50.4014 56.0408 50.4288 56.0592 50.4514 56.0826C50.474 56.106 50.4914 56.1338 50.5024 56.1643C50.5134 56.1948 50.5177 56.2273 50.5151 56.2595C50.5125 56.2918 50.5031 56.3232 50.4874 56.3516C50.4717 56.38 50.4501 56.4048 50.424 56.4243C50.398 56.4439 50.368 56.4578 50.3362 56.4651C49.9969 56.6124 49.6695 56.7773 49.3243 56.9186C47.9613 57.5075 46.5864 58.0611 45.2055 58.6147C44.4615 58.9092 43.7056 59.2036 42.9438 59.4451C40.6046 60.2107 37.1763 61.1648 34.0693 62.3073C32.4087 62.8962 30.9088 63.7089 29.5993 64.3273C29.1946 64.5217 28.8018 64.6277 28.4089 64.8102C28.404 64.8149 28.398 64.8185 28.3915 64.8207C28.385 64.8228 28.3781 64.8236 28.3713 64.8229C28.3644 64.8222 28.3578 64.8201 28.3519 64.8166C28.346 64.8131 28.3409 64.8085 28.337 64.8029C28.3331 64.7973 28.3305 64.7909 28.3293 64.7842C28.3281 64.7775 28.3284 64.7707 28.3301 64.7641C28.3319 64.7575 28.335 64.7514 28.3394 64.7461C28.3437 64.7409 28.3492 64.7366 28.3554 64.7337H28.3494Z" fill="#292160"/>
<path fill-rule="evenodd" clip-rule="evenodd" d="M24.3794 79.7103C24.3794 79.7103 4.95207 81.7304 0.898751 76.8953C-1.52967 73.9919 1.31539 66.5419 5.23182 65.5467C9.71963 64.41 24.3794 79.7103 24.3794 79.7103Z" fill="#6236B3"/>
<path fill-rule="evenodd" clip-rule="evenodd" d="M24.3973 79.8221C24.3973 79.8221 26.9566 66.3533 17.1239 59.8633C17.1239 59.8633 11.0648 58.1496 8.86251 65.1166C6.66027 72.0836 24.3973 79.8221 24.3973 79.8221Z" fill="#766DCC"/>
<path fill-rule="evenodd" clip-rule="evenodd" d="M24.3675 79.8279C24.3675 79.8279 17.3263 91.6065 5.60678 90.1106C5.60678 90.1106 -0.089299 87.4487 2.89266 80.7702C5.87462 74.0918 24.3675 79.8279 24.3675 79.8279Z" fill="#766DCC"/>
<path fill-rule="evenodd" clip-rule="evenodd" d="M24.2783 79.657C24.2183 79.7272 24.1504 79.7905 24.0759 79.8455C23.9617 79.9081 23.8396 79.9557 23.7128 79.9868C21.8976 80.6887 20.0207 81.2229 18.106 81.5828C15.974 81.9647 13.8185 82.2047 11.6541 82.3013C11.6408 82.3014 11.628 82.2966 11.6181 82.2879C11.6083 82.2792 11.602 82.2672 11.6005 82.2542C11.5997 82.2475 11.6003 82.2407 11.6023 82.2343C11.6043 82.2279 11.6076 82.222 11.6122 82.217C11.6167 82.212 11.6222 82.208 11.6284 82.2052C11.6346 82.2025 11.6413 82.2011 11.6481 82.2012C13.7931 82.0351 15.9259 81.7401 18.0346 81.3178C19.9316 80.9463 21.7948 80.4224 23.6057 79.7512C23.7211 79.6956 23.8405 79.6483 23.9628 79.6099C24.0559 79.6011 24.1495 79.6011 24.2426 79.6099H24.2783V79.657Z" fill="#292160"/>
<path fill-rule="evenodd" clip-rule="evenodd" d="M24.1533 79.7217C24.1434 79.8011 24.1213 79.8785 24.0878 79.9513C24.0474 80.0088 23.9971 80.0586 23.939 80.0986C23.0152 80.9433 21.98 81.6604 20.8618 82.2305C19.946 82.7228 18.9998 83.1575 18.0287 83.532C17.058 83.9054 16.0639 84.2162 15.0527 84.4625C15.029 84.468 15.0041 84.4644 14.9831 84.4523C14.9621 84.4403 14.9465 84.4208 14.9396 84.3977C14.9342 84.3751 14.938 84.3513 14.9503 84.3314C14.9626 84.3116 14.9822 84.2973 15.005 84.2917C16.6446 83.8065 18.2379 83.1798 19.7667 82.4189C21.1607 81.7713 22.4616 80.9435 23.6355 79.9572C23.6983 79.8783 23.7725 79.8088 23.8557 79.7511C23.9276 79.7179 24.0037 79.6941 24.0819 79.6804H24.1176C24.1228 79.6804 24.128 79.6814 24.1328 79.6836C24.1375 79.6857 24.1418 79.6888 24.1452 79.6928C24.1486 79.6967 24.1511 79.7013 24.1525 79.7063C24.1539 79.7113 24.1542 79.7165 24.1533 79.7217Z" fill="#292160"/>
<path fill-rule="evenodd" clip-rule="evenodd" d="M24.0878 79.7219C23.9902 79.6234 23.8988 79.5191 23.814 79.4097C23.7684 79.3343 23.7286 79.2555 23.6949 79.1742C22.8021 77.3661 21.9451 75.564 20.9273 73.8738C20.1901 72.5902 19.3333 71.3776 18.3679 70.2519C18.3591 70.2422 18.3542 70.2296 18.3542 70.2166C18.3542 70.2035 18.3591 70.191 18.3679 70.1812C18.3724 70.1762 18.3779 70.1722 18.384 70.1695C18.3902 70.1667 18.3968 70.1653 18.4036 70.1653C18.4104 70.1653 18.417 70.1667 18.4232 70.1695C18.4293 70.1722 18.4348 70.1762 18.4393 70.1812C19.4795 71.2582 20.3994 72.4429 21.1832 73.7148C22.2215 75.4382 23.1498 77.2242 23.9628 79.0623C23.9985 79.1388 24.0402 79.2213 24.0699 79.3037C24.1029 79.4374 24.1267 79.5732 24.1413 79.7101C24.1468 79.7156 24.1498 79.723 24.1498 79.7307C24.1498 79.7384 24.1468 79.7458 24.1413 79.7513L24.0878 79.7219Z" fill="#292160"/>
<path fill-rule="evenodd" clip-rule="evenodd" d="M24.2782 79.4568C24.1949 79.2271 24.1056 79.0151 24.0402 78.7854C24.0133 78.6884 23.9914 78.5902 23.9747 78.491C23.7061 77.1812 23.3704 75.8859 22.9688 74.6099C22.4685 73.0011 21.86 71.4271 21.1475 69.8985C21.1438 69.8923 21.1419 69.8851 21.1419 69.8779C21.1419 69.8707 21.1438 69.8636 21.1475 69.8573C21.153 69.8519 21.1605 69.8489 21.1683 69.8489C21.1761 69.8489 21.1836 69.8519 21.1892 69.8573C21.9836 71.345 22.6621 72.8905 23.2188 74.4804C23.6586 75.758 24.0066 77.0647 24.2604 78.3909C24.2604 78.491 24.3021 78.5911 24.314 78.6912C24.314 78.9268 24.314 79.1623 24.314 79.4038C24.314 79.4038 24.314 79.4038 24.314 79.4391C24.314 79.4745 24.2782 79.4568 24.2782 79.4568Z" fill="#292160"/>
<path fill-rule="evenodd" clip-rule="evenodd" d="M23.7962 79.61H23.5581C23.2639 79.5588 22.9736 79.488 22.6891 79.3979C21.2511 78.9995 19.838 78.5177 18.4572 77.9551C15.8714 76.906 13.3617 75.6821 10.9458 74.292C10.9355 74.2865 10.9279 74.2772 10.9245 74.2662C10.9212 74.2551 10.9224 74.2432 10.9279 74.2331C10.9334 74.2229 10.9428 74.2154 10.954 74.212C10.9651 74.2087 10.9772 74.2099 10.9874 74.2154C13.0196 75.3305 15.1096 76.339 17.249 77.2366C18.9545 77.963 20.699 78.5961 22.4748 79.1329C22.8379 79.239 23.2069 79.3096 23.5462 79.4333C23.6342 79.4665 23.7197 79.5059 23.8021 79.5511C23.81 79.5511 23.8176 79.5542 23.8232 79.5597C23.8287 79.5652 23.8319 79.5727 23.8319 79.5805C23.8319 79.5883 23.8287 79.5958 23.8232 79.6013C23.8176 79.6069 23.81 79.61 23.8021 79.61H23.7962Z" fill="#292160"/>
<path fill-rule="evenodd" clip-rule="evenodd" d="M24.0818 79.1683C24.2306 78.8443 23.8914 79.1152 24.2009 78.9209C24.2009 78.9209 24.2723 78.9209 24.308 78.9209C24.8356 78.9916 25.3583 79.0939 25.8734 79.2271C29.8553 80.14 35.2716 82.1718 40.6701 84.7336C44.387 86.4549 47.9822 88.4225 51.4313 90.6229C52.8991 91.58 54.3156 92.612 55.6751 93.7147C55.6857 93.7229 55.6945 93.733 55.7011 93.7445C55.7077 93.756 55.712 93.7686 55.7136 93.7818C55.7153 93.7949 55.7143 93.8082 55.7108 93.821C55.7072 93.8337 55.7012 93.8456 55.693 93.8561C55.6848 93.8665 55.6746 93.8753 55.6629 93.8818C55.6513 93.8883 55.6385 93.8926 55.6252 93.8942C55.612 93.8958 55.5985 93.8949 55.5856 93.8914C55.5727 93.8879 55.5607 93.8819 55.5501 93.8738C54.2407 92.9197 52.7527 91.9833 51.1754 91.0234C47.698 88.9164 44.1054 87.0014 40.4142 85.2872C35.6955 83.04 30.7758 81.232 25.7186 79.8867C25.183 79.7572 24.6711 79.6747 24.1949 79.5511C24.1949 79.5511 24.1176 79.5511 24.0997 79.5157C23.8735 79.233 24.0997 79.6041 24.0997 79.2448V79.2095C24.0997 79.2095 24.0699 79.1683 24.0818 79.1683Z" fill="#292160"/>
<path fill-rule="evenodd" clip-rule="evenodd" d="M33.1229 81.8126C33.155 81.7993 33.1894 81.7925 33.2241 81.7925C33.2588 81.7925 33.2932 81.7993 33.3253 81.8126C33.3535 81.8287 33.3777 81.8508 33.3962 81.8773C33.4147 81.9038 33.4271 81.934 33.4324 81.9657C33.5074 82.2836 33.5591 82.6064 33.5872 82.9316C33.5872 83.2084 33.6348 83.5205 33.6467 83.8974C33.7708 86.5339 32.958 89.1301 31.3492 91.2354C29.7719 93.1966 27.1471 94.8691 22.814 95.4639C22.7752 95.4689 22.7358 95.4663 22.698 95.4562C22.6602 95.4461 22.6248 95.4287 22.5938 95.405C22.5339 95.3523 22.4975 95.2782 22.4926 95.1989C22.481 92.1007 23.4925 89.0835 25.3734 86.6065C27.125 84.4282 29.5199 82.8451 32.2242 82.0776C32.4563 82.007 32.6884 81.9304 32.9384 81.8715L33.117 81.842L33.1229 81.8126ZM32.986 82.4015L32.3908 82.5723C29.8074 83.3243 27.5212 84.8461 25.8436 86.9304C24.1132 89.218 23.1477 91.983 23.0819 94.8397C27.034 94.2507 29.4684 92.696 30.9445 90.8703C32.4383 88.8747 33.1928 86.4313 33.0813 83.9504C33.0817 83.4327 33.0499 82.9154 32.986 82.4015Z" fill="#292160"/>
<path fill-rule="evenodd" clip-rule="evenodd" d="M23.0164 95.1457C23.0653 94.8077 23.1511 94.476 23.2724 94.1563C23.6198 93.4511 24.0471 92.7873 24.5461 92.1775C26.1234 90.0456 28.3018 87.843 29.647 86.2883C30.6588 85.1575 31.51 83.9326 32.4682 82.7547C32.7123 82.4661 32.9682 82.1658 33.2301 81.9067C33.2596 81.8797 33.2979 81.8641 33.338 81.8629C33.3781 81.8616 33.4174 81.8747 33.4485 81.8998C33.4796 81.9249 33.5006 81.9602 33.5075 81.9994C33.5144 82.0385 33.5067 82.0788 33.486 82.1128C33.3313 82.3307 33.1884 82.5486 33.0277 82.7606C32.4325 83.6145 31.7659 84.4508 31.1171 85.293C30.766 85.7406 30.4088 86.1882 30.0279 86.6181C28.8732 87.9373 27.1114 89.757 25.6234 91.5827C24.8259 92.5603 24.189 93.5851 23.6117 94.439C23.4331 94.704 23.2367 94.916 23.076 95.1516C23.0699 95.1559 23.0626 95.1582 23.0551 95.1582C23.0477 95.1582 23.0404 95.1559 23.0343 95.1516C23.0279 95.1513 23.0218 95.1492 23.0164 95.1457Z" fill="#292160"/>
<path fill-rule="evenodd" clip-rule="evenodd" d="M168.353 79.7103C168.353 79.7103 187.197 81.7304 191.125 76.8953C193.506 73.9919 190.72 66.5419 186.923 65.5467C182.572 64.41 168.353 79.7103 168.353 79.7103Z" fill="#DA7290"/>
<path fill-rule="evenodd" clip-rule="evenodd" d="M168.341 79.8221C168.341 79.8221 165.853 66.3533 175.388 59.8633C175.388 59.8633 181.263 58.1496 183.399 65.1166C185.536 72.0836 168.341 79.8221 168.341 79.8221Z" fill="#E185A1"/>
<path fill-rule="evenodd" clip-rule="evenodd" d="M168.365 79.8279C168.365 79.8279 175.191 91.6065 186.56 90.1106C186.56 90.1106 192.083 87.4487 189.191 80.7702C186.298 74.0918 168.365 79.8279 168.365 79.8279Z" fill="#E185A1"/>
<path fill-rule="evenodd" clip-rule="evenodd" d="M168.448 79.657C168.508 79.7272 168.576 79.7905 168.65 79.8455C168.761 79.9071 168.879 79.9546 169.001 79.9868C170.76 80.688 172.581 81.2224 174.442 81.5828C176.505 81.9648 178.594 82.2049 180.691 82.3013C180.704 82.3013 180.717 82.2966 180.727 82.2879C180.737 82.2792 180.743 82.2672 180.745 82.2542C180.746 82.2475 180.745 82.2407 180.743 82.2343C180.741 82.2279 180.738 82.222 180.733 82.217C180.729 82.212 180.723 82.2079 180.717 82.2052C180.711 82.2025 180.704 82.2011 180.697 82.2012C178.615 82.0348 176.546 81.7398 174.501 81.3178C172.661 80.9458 170.855 80.4218 169.103 79.7512C168.989 79.6956 168.872 79.6483 168.751 79.6099C168.662 79.6011 168.573 79.6011 168.484 79.6099H168.448V79.657Z" fill="#292160"/>
<path fill-rule="evenodd" clip-rule="evenodd" d="M168.567 79.7216C168.572 79.8012 168.592 79.8792 168.626 79.9513C168.664 80.0087 168.713 80.0587 168.769 80.0986C169.66 80.9387 170.661 81.6559 171.745 82.2305C172.633 82.7223 173.551 83.1571 174.495 83.532C175.436 83.9049 176.4 84.2158 177.382 84.4625C177.405 84.4678 177.429 84.464 177.449 84.4519C177.469 84.4398 177.483 84.4203 177.489 84.3977C177.493 84.3869 177.494 84.3755 177.493 84.3641C177.492 84.3528 177.488 84.3418 177.483 84.3318C177.477 84.3218 177.469 84.3132 177.46 84.3063C177.451 84.2993 177.441 84.2944 177.429 84.2917C175.828 83.8083 174.274 83.1814 172.787 82.4189C171.428 81.7703 170.165 80.9422 169.031 79.9572C168.969 79.8799 168.897 79.8106 168.817 79.7511C168.747 79.7188 168.673 79.695 168.597 79.6804H168.561L168.567 79.7216Z" fill="#292160"/>
<path fill-rule="evenodd" clip-rule="evenodd" d="M168.638 79.7219C168.732 79.6232 168.819 79.519 168.9 79.4097C168.948 79.3356 168.988 79.2566 169.019 79.1742C169.888 77.3662 170.716 75.564 171.704 73.8738C172.414 72.5918 173.245 71.3791 174.186 70.2519C174.191 70.2475 174.195 70.2421 174.198 70.236C174.2 70.2299 174.202 70.2233 174.202 70.2166C174.202 70.2099 174.2 70.2033 174.198 70.1972C174.195 70.1911 174.191 70.1857 174.186 70.1813C174.182 70.1764 174.177 70.1724 174.171 70.1697C174.165 70.1669 174.159 70.1655 174.153 70.1655C174.147 70.1655 174.14 70.1669 174.135 70.1697C174.129 70.1724 174.124 70.1764 174.12 70.1813C173.11 71.2629 172.218 72.4473 171.46 73.7148C170.451 75.4398 169.552 77.2258 168.769 79.0623C168.728 79.14 168.692 79.2207 168.662 79.3037C168.629 79.4374 168.605 79.5732 168.591 79.7101C168.585 79.7156 168.582 79.723 168.582 79.7307C168.582 79.7384 168.585 79.7458 168.591 79.7513L168.638 79.7219Z" fill="#292160"/>
<path fill-rule="evenodd" clip-rule="evenodd" d="M168.454 79.4568C168.531 79.2271 168.621 79.0151 168.686 78.7854C168.711 78.6884 168.731 78.5901 168.745 78.491C169.006 77.1816 169.334 75.8863 169.728 74.6099C170.218 73.0024 170.814 71.4285 171.513 69.8985C171.517 69.8923 171.519 69.8851 171.519 69.8779C171.519 69.8707 171.517 69.8636 171.513 69.8573C171.508 69.8519 171.5 69.8489 171.492 69.8489C171.485 69.8489 171.477 69.8519 171.472 69.8573C170.699 71.3473 170.04 72.8926 169.501 74.4804C169.076 75.7596 168.74 77.0661 168.496 78.3909C168.496 78.491 168.454 78.5911 168.442 78.6912C168.442 78.9268 168.442 79.1623 168.442 79.4038C168.442 79.4038 168.442 79.4038 168.442 79.4391C168.442 79.4745 168.454 79.4568 168.454 79.4568Z" fill="#292160"/>
<path fill-rule="evenodd" clip-rule="evenodd" d="M168.918 79.61H169.144C169.43 79.558 169.713 79.4871 169.989 79.398C171.385 78.9995 172.754 78.5177 174.09 77.9551C176.603 76.9047 179.037 75.6807 181.376 74.292C181.38 74.2881 181.383 74.2836 181.385 74.2785C181.387 74.2734 181.388 74.268 181.388 74.2625C181.388 74.257 181.387 74.2516 181.385 74.2466C181.383 74.2415 181.38 74.2369 181.376 74.2331C181.372 74.2292 181.367 74.226 181.362 74.2239C181.357 74.2218 181.351 74.2207 181.346 74.2207C181.34 74.2207 181.335 74.2218 181.33 74.2239C181.325 74.226 181.32 74.2292 181.316 74.2331C179.349 75.3481 177.323 76.3567 175.245 77.2543C173.592 77.9805 171.899 78.6137 170.174 79.1506C169.823 79.2566 169.472 79.3273 169.138 79.451C169.052 79.4842 168.969 79.5236 168.888 79.5688V79.6041C168.888 79.6041 168.906 79.61 168.918 79.61Z" fill="#292160"/>
<path fill-rule="evenodd" clip-rule="evenodd" d="M168.638 79.1683C168.495 78.8443 168.829 79.1152 168.531 78.9209C168.501 78.9209 168.46 78.9209 168.424 78.9209C167.912 78.9913 167.405 79.0936 166.906 79.2271C163.043 80.14 157.794 82.1718 152.556 84.7336C148.944 86.4588 145.456 88.4265 142.116 90.6229C140.692 91.5823 139.319 92.6143 138.003 93.7147C137.984 93.7335 137.974 93.7589 137.974 93.7854C137.974 93.8119 137.984 93.8373 138.003 93.8561C138.012 93.866 138.022 93.8739 138.034 93.8794C138.046 93.8849 138.059 93.8877 138.072 93.8877C138.085 93.8877 138.098 93.8849 138.11 93.8794C138.121 93.8739 138.132 93.866 138.14 93.8561C139.414 92.902 140.854 91.9656 142.384 91.0057C145.752 88.9011 149.238 86.986 152.824 85.2695C157.389 83.0252 162.161 81.2169 167.073 79.8691C167.591 79.7395 168.091 79.6571 168.549 79.5334C168.579 79.5334 168.62 79.5334 168.644 79.4981C168.865 79.2154 168.644 79.5864 168.644 79.2271C168.644 79.2271 168.644 79.2271 168.644 79.1918C168.645 79.1835 168.643 79.1753 168.638 79.1683Z" fill="#292160"/>
<path fill-rule="evenodd" clip-rule="evenodd" d="M159.859 81.8127C159.829 81.7994 159.797 81.7925 159.764 81.7925C159.731 81.7925 159.699 81.7994 159.669 81.8127C159.641 81.8288 159.616 81.8509 159.598 81.8774C159.579 81.9038 159.567 81.9341 159.562 81.9658C159.491 82.2842 159.441 82.6069 159.413 82.9317C159.383 83.2085 159.365 83.5206 159.359 83.8975C159.236 86.5238 160.023 89.113 161.591 91.2355C163.127 93.1967 165.668 94.8692 169.87 95.464C169.908 95.4692 169.947 95.4667 169.984 95.4565C170.021 95.4464 170.055 95.4289 170.085 95.4051C170.145 95.3523 170.181 95.2783 170.186 95.199C170.2 92.1143 169.223 89.1051 167.394 86.6066C165.713 84.4443 163.387 82.8599 160.746 82.0777C160.52 82.0071 160.294 81.9305 160.056 81.8716L159.859 81.8127ZM159.996 82.4016L160.591 82.5724C163.122 83.3324 165.348 84.8562 166.96 86.9305C168.643 89.2374 169.579 91.9953 169.644 94.8398C165.805 94.2508 163.448 92.6961 162.02 90.8704C160.555 88.8638 159.811 86.4299 159.907 83.9564C159.908 83.4366 159.942 82.9173 160.008 82.4016H159.996Z" fill="#292160"/>
<path fill-rule="evenodd" clip-rule="evenodd" d="M169.68 95.1456C169.631 94.8076 169.545 94.4758 169.424 94.1562C169.09 93.4529 168.676 92.7891 168.192 92.1774C166.662 90.0455 164.549 87.8429 163.246 86.2881C162.264 85.1574 161.46 83.9324 160.508 82.7546C160.276 82.466 160.02 82.1656 159.77 81.9065C159.755 81.8912 159.738 81.8789 159.718 81.8706C159.699 81.8622 159.678 81.8579 159.657 81.8579C159.636 81.8579 159.615 81.8622 159.595 81.8706C159.576 81.8789 159.558 81.8912 159.544 81.9065C159.514 81.9373 159.497 81.9785 159.497 82.0214C159.497 82.0642 159.514 82.1054 159.544 82.1362C159.693 82.3541 159.829 82.572 159.984 82.784C160.579 83.6379 161.21 84.4742 161.841 85.3164C162.18 85.764 162.526 86.2116 162.895 86.6415C164.014 87.9607 165.722 89.7805 167.168 91.6061C167.942 92.5838 168.555 93.6085 169.115 94.4624C169.287 94.7275 169.484 94.9395 169.638 95.175C169.644 95.1794 169.652 95.1817 169.659 95.1817C169.667 95.1817 169.674 95.1794 169.68 95.175C169.683 95.1655 169.683 95.1552 169.68 95.1456Z" fill="#292160"/>
</g>
<g clip-path="url(#clip1_202_64)">
<path fill-rule="evenodd" clip-rule="evenodd" d="M110.208 5.93453C110.208 5.93453 85.393 -9.96574 69.7153 10.2993C61.6543 20.7221 63.8542 61.3113 63.8542 61.3113L72.2685 63.5851V53.7374L73.7083 64.2409L78.1135 64.6171L77.9261 56.3391L79.7032 64.6171L85.4198 65.8588L110.812 65.4073L113.933 64.1495V58.6881L114.918 63.7732L119.248 63.112L117.471 50.9745L120.463 63.2034L125.816 60.6609L124.017 52.3829L126.753 59.5321L131.254 56.9895L125.441 39.7884C125.441 39.7884 126.356 11.9227 110.208 5.93453Z" fill="#292160"/>
<path fill-rule="evenodd" clip-rule="evenodd" d="M61.8683 77.0824C61.8683 77.0824 57.233 76.6631 53.9893 83.7048C51.9393 87.6342 27.6064 134.867 24.2075 149.139C22.2752 157.234 25.8507 166.34 28.2112 166.404C48.3209 166.942 53.7966 142.624 67.6705 114.403C72.9428 103.674 61.8683 77.0824 61.8683 77.0824Z" fill="#E185A1"/>
<path fill-rule="evenodd" clip-rule="evenodd" d="M128.203 74.9592C128.203 74.9592 138.501 76.7815 140.359 80.0174C153.74 97.1486 174.615 162.325 161.207 168.238C161.207 168.238 148.002 164.545 129.969 109.356C125.95 98.1431 128.203 74.9592 128.203 74.9592Z" fill="#E185A1"/>
<path fill-rule="evenodd" clip-rule="evenodd" d="M86.5278 71.0942L60.5356 77.3726C55.7182 79.4153 68.4306 154.53 68.4306 154.53L51.9446 187.32H144.705L127.106 154.53C127.106 154.53 139.824 80.0764 136.007 77.3726C132.041 74.5613 109.779 70.46 109.779 70.46L86.5278 71.0942Z" fill="#E185A1"/>
<path d="M109.753 41.1753H86.5277V81.4474H109.753V41.1753Z" fill="#E185A1"/>
<path fill-rule="evenodd" clip-rule="evenodd" d="M85.0611 60.1287C85.0611 60.1287 95.3756 68.3207 107.456 61.3112L110.925 60.1932C110.925 60.1932 106.423 74.411 98.6942 74.5453C93.5075 74.6313 85.9818 67.1166 85.0611 60.1287Z" fill="#292160"/>
<path fill-rule="evenodd" clip-rule="evenodd" d="M97.7521 5.93433C111.669 5.93433 120.881 14.8251 120.881 31.3328C120.881 47.8405 110.812 65.4071 97.7521 67.783C84.3064 65.8586 75.2712 50.3185 75.2712 33.8108C75.2712 17.3032 83.8514 5.93433 97.7521 5.93433Z" fill="#E185A1"/>
<path fill-rule="evenodd" clip-rule="evenodd" d="M119.382 38.8205C119.382 38.8205 122.561 31.6821 126.801 34.4504C131.04 37.2187 125.077 50.1141 116.674 49.7056L119.382 38.8205Z" fill="#E185A1"/>
<path fill-rule="evenodd" clip-rule="evenodd" d="M75.7209 38.8205C75.7209 38.8205 72.6806 31.6821 68.6287 34.4504C64.5767 37.2187 70.9838 50.6355 79.0288 50.2324L75.7209 38.8205Z" fill="#E185A1"/>
<path fill-rule="evenodd" clip-rule="evenodd" d="M76.2561 44.9269C76.3043 44.9269 76.2561 44.9538 76.299 44.9269C76.3418 44.9 76.299 44.8516 76.299 44.814C76.2615 44.4646 76.208 44.0937 76.133 43.7389C75.949 42.7832 75.6544 41.8523 75.2552 40.9653C74.8808 40.0844 74.3348 39.2876 73.6494 38.6216C73.4806 38.4682 73.3018 38.3263 73.1142 38.197C72.8434 38.0035 72.5629 37.8241 72.2738 37.6594C72.1025 37.5627 71.9259 37.4767 71.7385 37.396C71.5538 37.3177 71.3643 37.2513 71.1712 37.1971C69.9722 36.9284 69.1961 37.3154 68.7464 37.9927C68.1148 38.9495 68.1577 40.5191 68.4521 41.4544C68.527 41.7017 68.5859 41.8683 68.6501 42.0296C68.7143 42.1908 68.8374 42.4542 69.0141 42.852C69.0212 42.8692 69.0345 42.8832 69.0513 42.8911C69.0681 42.8991 69.0873 42.9005 69.1051 42.895C69.1208 42.8879 69.1334 42.8752 69.1403 42.8593C69.1473 42.8434 69.148 42.8255 69.1425 42.809C68.998 42.3951 68.907 42.1855 68.8374 41.9651C68.7761 41.7783 68.7261 41.5881 68.6876 41.3953C68.4768 40.3404 68.6801 39.2446 69.2549 38.3367C69.4584 38.089 69.7354 37.9131 70.0455 37.8348C70.3556 37.7564 70.6825 37.7798 70.9785 37.9013C71.1405 37.9383 71.2997 37.9868 71.4549 38.0465C71.6101 38.111 71.7653 38.1808 71.9152 38.2561C72.1935 38.4012 72.4504 38.5517 72.7288 38.7184C72.8993 38.8256 73.0637 38.9422 73.2212 39.0678C73.8894 39.6508 74.4353 40.3616 74.827 41.1588C75.2536 42.0014 75.5875 42.8882 75.8226 43.8034C75.9243 44.1743 76.0153 44.5345 76.0848 44.8785C76.0848 44.9161 76.0848 44.9591 76.1116 44.986C76.1384 45.0129 76.1116 44.986 76.1544 44.986C76.1557 44.9938 76.1586 45.0013 76.1628 45.008C76.167 45.0147 76.1725 45.0205 76.179 45.025C76.1855 45.0295 76.1928 45.0327 76.2006 45.0343C76.2083 45.0359 76.2163 45.0359 76.224 45.0344C76.2382 45.0387 76.2535 45.0371 76.2666 45.0301C76.2796 45.023 76.2893 45.011 76.2936 44.9968C76.2979 44.9825 76.2963 44.9671 76.2893 44.954C76.2822 44.9409 76.2703 44.9312 76.2561 44.9269Z" fill="#292160"/>
<path fill-rule="evenodd" clip-rule="evenodd" d="M72.9536 38.4389C72.9163 38.4208 72.8766 38.4081 72.8358 38.4013C72.6819 38.3943 72.5288 38.4277 72.3915 38.4981C72.1328 38.6176 71.9095 38.8029 71.7439 39.0356C71.3696 39.5907 71.1514 40.237 71.1123 40.9062C71.0635 42.3038 71.3576 43.6919 71.9687 44.9485C72.2678 45.588 72.6532 46.1831 73.1141 46.717C73.5873 47.2512 74.1419 47.7066 74.7574 48.0662C74.7982 48.0942 74.8482 48.1053 74.8971 48.0973C74.9459 48.0893 74.9898 48.0628 75.0196 48.0232C75.0459 47.9825 75.055 47.9331 75.0449 47.8857C75.0349 47.8383 75.0065 47.7969 74.9661 47.7705C74.4308 47.3753 73.9533 46.9067 73.5477 46.3783C73.1297 45.8669 72.7706 45.3097 72.4772 44.7173C71.8863 43.5411 71.5853 42.2397 71.5994 40.9223C71.5926 40.3297 71.7461 39.7463 72.0436 39.2345C72.1648 39.0409 72.3299 38.8788 72.5253 38.7614C72.627 38.7023 72.7448 38.6647 72.8572 38.6109C72.8888 38.5894 72.9192 38.566 72.9482 38.5411C72.9557 38.5411 72.9631 38.5396 72.97 38.5365C72.9769 38.5335 72.983 38.529 72.9881 38.5235C72.9931 38.5179 72.9969 38.5113 72.9993 38.5042C73.0016 38.497 73.0025 38.4894 73.0017 38.4819C72.9987 38.4708 72.9926 38.4609 72.984 38.4532C72.9755 38.4456 72.9649 38.4406 72.9536 38.4389Z" fill="#292160"/>
<path fill-rule="evenodd" clip-rule="evenodd" d="M117.669 46.8624C117.782 46.8248 117.798 46.8624 117.883 46.7925C118.215 46.513 118.263 46.0292 118.419 45.6368C118.799 44.7822 119.163 43.9167 119.543 43.0567C119.904 42.207 120.307 41.3764 120.752 40.5679C121.226 39.7094 121.799 38.9101 122.46 38.1866C122.632 37.9953 122.832 37.8321 123.054 37.7028C123.603 37.3331 124.266 37.1729 124.922 37.2513C125.242 37.3003 125.54 37.4403 125.783 37.6546C126.026 37.869 126.203 38.1487 126.292 38.4608C126.292 38.4608 126.292 38.4608 126.319 38.4608C126.346 38.4608 126.319 38.4608 126.319 38.4608C126.231 38.0213 126 37.6239 125.661 37.3317C125.323 37.0396 124.897 36.8694 124.451 36.8482C123.79 36.7473 123.115 36.8426 122.508 37.1223C122.243 37.2609 122.002 37.4425 121.796 37.6598C120.821 38.6656 120.014 39.8238 119.409 41.0893C119.119 41.6785 118.862 42.2833 118.638 42.9008C118.301 43.8146 118.017 44.7392 117.728 45.6637C117.632 45.9701 117.541 46.2765 117.444 46.5829C117.444 46.6152 117.412 46.642 117.444 46.6743C117.444 46.7872 117.498 46.771 117.551 46.8678C117.548 46.8748 117.546 46.8824 117.546 46.8902C117.546 46.898 117.547 46.9057 117.55 46.9129C117.553 46.92 117.558 46.9264 117.564 46.9316C117.569 46.9369 117.576 46.9407 117.584 46.9431C117.589 46.9487 117.595 46.9532 117.602 46.9564C117.609 46.9596 117.617 46.9614 117.624 46.9617C117.632 46.9619 117.64 46.9606 117.647 46.9579C117.654 46.9552 117.661 46.951 117.666 46.9457C117.672 46.9404 117.677 46.9341 117.68 46.927C117.683 46.92 117.685 46.9124 117.685 46.9046C117.685 46.8969 117.684 46.8892 117.681 46.8819C117.679 46.8747 117.674 46.8681 117.669 46.8624Z" fill="#292160"/>
<path fill-rule="evenodd" clip-rule="evenodd" d="M120.982 38.8636C120.982 38.8636 121.02 38.912 120.982 39.0302C120.974 39.0294 120.966 39.0303 120.959 39.033C120.951 39.0357 120.945 39.04 120.939 39.0457C120.933 39.0513 120.929 39.0582 120.926 39.0658C120.924 39.0733 120.923 39.0814 120.924 39.0893C120.924 39.0971 120.926 39.1047 120.93 39.1116C120.934 39.1185 120.939 39.1247 120.945 39.1297C120.95 39.1347 120.957 39.1384 120.965 39.1407C120.972 39.143 120.98 39.1438 120.988 39.1431C121.015 39.2667 120.988 39.3044 120.988 39.3097C120.988 39.3151 120.849 39.1915 121.052 39.3581C121.089 39.3904 121.154 39.3581 121.207 39.3581C121.762 39.4185 122.273 39.685 122.642 40.1053C122.843 40.3187 122.994 40.5736 123.087 40.8521C123.179 41.1307 123.21 41.4262 123.177 41.7179C123.036 42.6536 122.65 43.5348 122.058 44.2712C121.436 45.0519 120.716 45.7492 119.917 46.3461C119.896 46.3615 119.878 46.381 119.864 46.4034C119.851 46.4259 119.842 46.4508 119.838 46.4768C119.834 46.5028 119.835 46.5294 119.841 46.5549C119.848 46.5804 119.859 46.6044 119.874 46.6256C119.908 46.6685 119.957 46.6964 120.011 46.7034C120.065 46.7105 120.12 46.696 120.163 46.6632C121.235 46.0049 122.182 45.1625 122.963 44.1744C123.472 43.4828 123.817 42.6827 123.969 41.8361C124.034 41.4281 124.002 41.0105 123.878 40.6167C123.753 40.2229 123.539 39.8637 123.252 39.5677C122.989 39.3004 122.673 39.0915 122.324 38.9545C121.976 38.8175 121.603 38.7554 121.229 38.7722C121.164 38.7722 121.079 38.7453 121.036 38.7722C120.838 39.0141 120.929 38.8475 120.982 38.8636Z" fill="#292160"/>
<path fill-rule="evenodd" clip-rule="evenodd" d="M98.7852 35.074C98.7477 35.1009 98.7852 35.1547 98.7424 35.1977C98.5979 35.6492 98.4855 36.0954 98.3838 36.5523C98.1251 37.7737 97.9463 39.0109 97.8485 40.2559C97.779 41.0853 97.7522 41.9178 97.7682 42.75C97.8104 44.8286 98.0379 46.8992 98.448 48.9371C98.4923 49.1924 98.5495 49.4454 98.6193 49.695C98.6889 49.9476 98.7852 50.1841 98.8762 50.4368C98.8799 50.4488 98.8874 50.4593 98.8975 50.4668C98.9076 50.4742 98.9198 50.4783 98.9324 50.4783C98.9449 50.4783 98.9572 50.4742 98.9673 50.4668C98.9774 50.4593 98.9849 50.4488 98.9886 50.4368C98.9886 50.1841 98.9886 49.9422 98.9886 49.6896C98.9886 49.3133 98.9511 48.9478 98.9297 48.5823C98.8334 47.1309 98.7745 45.7118 98.7798 44.282C98.7798 43.3628 98.8334 42.4544 98.8655 41.5352C98.8976 40.616 98.919 39.713 98.9779 38.7938C99.0207 38.0305 99.0903 37.2618 99.1492 36.4878C99.1492 36.1545 99.2027 35.8266 99.2134 35.4933C99.2134 35.3804 99.283 35.2514 99.2134 35.1547C99.1631 35.0925 99.0924 35.0503 99.014 35.0356C98.9356 35.0208 98.8545 35.0344 98.7852 35.074Z" fill="#292160"/>
<path d="M86.1691 53.7373C89.1873 53.7373 91.6341 51.3812 91.6341 48.4749C91.6341 45.5685 89.1873 43.2124 86.1691 43.2124C83.1509 43.2124 80.7041 45.5685 80.7041 48.4749C80.7041 51.3812 83.1509 53.7373 86.1691 53.7373Z" fill="#DA7290"/>
<path d="M110.208 53.7373C113.226 53.7373 115.673 51.3812 115.673 48.4749C115.673 45.5685 113.226 43.2124 110.208 43.2124C107.189 43.2124 104.743 45.5685 104.743 48.4749C104.743 51.3812 107.189 53.7373 110.208 53.7373Z" fill="#DA7290"/>
<path fill-rule="evenodd" clip-rule="evenodd" d="M93.0847 33.956C92.9027 33.956 89.3379 28.8225 83.8515 32.7519C83.8067 32.7831 83.7534 32.7998 83.6989 32.7998C83.6444 32.7998 83.5912 32.7831 83.5464 32.7519C83.5304 32.7356 83.5185 32.7158 83.5117 32.6941C83.5048 32.6723 83.5031 32.6493 83.5067 32.6268C83.5104 32.6043 83.5193 32.5829 83.5327 32.5645C83.5461 32.5461 83.5636 32.5311 83.5838 32.5207C84.6097 31.5308 85.8877 30.8445 87.2771 30.5372C87.9615 30.3934 88.6642 30.359 89.3593 30.4351C90.1379 30.5175 90.8965 30.7338 91.602 31.0748C92.5158 31.495 93.338 32.0923 94.0214 32.8325C94.1124 32.9131 93.8876 33.956 93.0847 33.956Z" fill="#292160"/>
<path fill-rule="evenodd" clip-rule="evenodd" d="M104.181 34.0743C104.341 34.0743 107.51 28.8441 112.37 32.6176C112.409 32.6477 112.457 32.664 112.507 32.664C112.556 32.664 112.604 32.6477 112.643 32.6176C112.658 32.6008 112.67 32.5808 112.676 32.559C112.683 32.5373 112.685 32.5144 112.682 32.4918C112.679 32.4693 112.671 32.4477 112.659 32.4286C112.646 32.4094 112.63 32.3932 112.611 32.3811C111.732 31.4389 110.59 30.785 109.335 30.5051C108.727 30.3808 108.102 30.3663 107.488 30.4621C106.786 30.5704 106.109 30.8072 105.492 31.1609C104.668 31.6239 103.941 32.2427 103.351 32.9831C103.265 33.0638 103.469 34.0958 104.181 34.0743Z" fill="#292160"/>
<path fill-rule="evenodd" clip-rule="evenodd" d="M84.6329 38.1758C84.6329 38.1758 86.8221 41.0086 89.841 40.4764C92.8599 39.9443 93.3416 38.8638 93.3416 38.8638C92.975 39.7187 92.3681 40.4477 91.5951 40.9614C90.8222 41.475 89.9168 41.7511 88.9899 41.7558C88.0214 41.7417 87.067 41.5207 86.1902 41.1073C85.3134 40.6939 84.5344 40.0977 83.905 39.3584C83.8618 39.2326 83.847 39.0987 83.8616 38.9664C83.8763 38.8342 83.92 38.7069 83.9897 38.5937C84.0594 38.4805 84.1532 38.3843 84.2645 38.312C84.3757 38.2398 84.5016 38.1932 84.6329 38.1758Z" fill="#292160"/>
<path fill-rule="evenodd" clip-rule="evenodd" d="M112.434 38.1758C112.434 38.1758 110.39 41.0086 107.574 40.4764C104.759 39.9443 104.304 38.8638 104.304 38.8638C104.304 38.8638 105.374 41.7558 108.366 41.7558C109.284 41.7295 110.185 41.5011 111.005 41.0869C111.826 40.6726 112.546 40.0826 113.114 39.3584C113.155 39.2359 113.169 39.1063 113.156 38.978C113.143 38.8497 113.103 38.7256 113.038 38.6139C112.974 38.5022 112.887 38.4054 112.783 38.3299C112.679 38.2544 112.56 38.2019 112.434 38.1758Z" fill="#292160"/>
<path d="M61.8683 77.0825C61.8683 77.0825 67.9489 102.196 61.8683 121.601L65.8507 153.885L48.99 187.718H146.546L129.782 153.687L133.138 119.403C133.138 119.403 127.786 88.2632 133.513 76.1902L118.038 72.1265C118.038 72.1265 106.455 84.1565 73.1302 74.3357L61.8683 77.0825Z" fill="#292160"/>
<path fill-rule="evenodd" clip-rule="evenodd" d="M29.3888 171.076C40.3081 168.237 74.6824 122.805 74.6824 122.805C74.6824 122.805 74.9073 116.011 68.452 118.333C24.4965 143.403 24.1432 145.376 23.3618 153.928C22.8265 159.723 25.9952 171.952 29.3888 171.076Z" fill="#E8A6BD"/>
<path fill-rule="evenodd" clip-rule="evenodd" d="M105.16 16.0615C105.16 16.0615 87.4002 14.8251 83.7498 26.7638C80.0993 38.7024 81.8763 56.9409 81.8763 56.9409L68.2272 52.1945C68.2272 52.1945 65.3529 37.8639 68.2272 25.3662C71.1016 12.8685 87.4966 1.33303 101.269 4.741C101.269 4.741 116.791 7.06852 119.837 19.163C122.883 31.2576 120.875 35.8965 120.875 35.8965L118.67 42.8522L118.718 34.0796C118.718 34.0796 109.003 27.3819 105.16 16.0615Z" fill="#292160"/>
<path d="M120.972 161.072C111.706 156.1 104.625 149.209 95.9965 138.318C89.4153 145.598 81.5917 151.638 72.8947 156.154L75.2819 147.494L66.9533 144.564C75.1212 140.32 82.3665 134.485 88.2674 127.401C84.3118 120.794 81.306 113.658 79.3392 106.206C78.1242 101.573 76.7379 94.6222 78.6434 87.731C80.8379 79.797 87.2075 73.9002 94.4978 73.0456C103.126 72.0404 111.765 78.2758 114.581 87.559C117.054 95.6758 114.95 103.75 113.152 109.114C110.948 115.67 107.923 121.918 104.148 127.707C111.439 137.614 118.445 144.909 127.09 149.558L119.237 152.434L120.972 161.072ZM95.7128 86.0485C93.8019 86.4463 91.875 88.6072 91.1524 91.225C90.3388 94.1545 90.5743 97.8635 91.8964 102.9C93.0111 107.147 94.5348 111.275 96.4461 115.226C98.1895 111.928 99.6611 108.493 100.846 104.954C102.794 99.1321 103.217 94.8103 102.168 91.3647C101.215 88.2363 98.3302 85.7314 95.9965 85.9894C95.9009 86.0038 95.8062 86.0235 95.7128 86.0485Z" fill="#DCDBF6"/>
<path fill-rule="evenodd" clip-rule="evenodd" d="M69.1586 125.874C66.9694 124.885 66.8677 119.644 67.3387 118.94C69.1532 116.253 70.3576 114.688 71.2408 111.872C72.0222 109.383 70.9357 109.931 71.2408 108.77C71.3157 108.523 72.3113 108.598 73.3818 109.781C74.8163 111.361 73.7244 113.221 73.8261 113.124C76.3525 110.802 84.8899 102.373 86.1959 103.346C86.8864 103.852 77.043 113.022 77.1821 112.941C78.3436 112.312 84.9059 108.104 87.2504 106.389C89.5948 104.674 90.023 104.884 90.3549 104.878C90.6867 104.873 89.9534 105.765 89.2308 106.346C86.9024 108.222 79.9494 114.441 79.0609 115.048C78.8736 115.172 87.1808 110.592 90.4084 109.281C92.5494 108.405 94.3961 108.206 91.1256 110.399C88.7973 111.952 86.1691 113.205 83.632 114.597C82.4866 115.215 80.6024 116.597 79.4623 117.22C78.9592 117.489 89.8624 112.146 90.5422 113.06C91.0132 113.689 84.3386 117.102 82.2082 118.521C80.0779 119.94 70.3683 126.423 69.1586 125.874Z" fill="#E8A6BD"/>
<path fill-rule="evenodd" clip-rule="evenodd" d="M161.662 171.076C152.076 168.237 121.914 122.805 121.914 122.805C121.914 122.805 121.716 116.011 127.379 118.333C165.95 143.403 166.26 145.376 166.95 153.928C167.416 159.723 164.638 171.952 161.662 171.076Z" fill="#E8A6BD"/>
<path fill-rule="evenodd" clip-rule="evenodd" d="M126.758 125.874C128.679 124.885 128.77 119.644 128.364 118.94C126.758 116.253 125.714 114.688 124.943 111.872C124.258 109.383 125.211 109.931 124.943 108.77C124.879 108.523 124.017 108.598 123.07 109.781C121.812 111.361 122.77 113.221 122.679 113.124C120.463 110.802 112.97 102.373 111.824 103.346C111.219 103.852 119.853 113.022 119.735 112.941C118.713 112.312 112.959 108.104 110.898 106.389C108.837 104.674 108.468 104.884 108.174 104.878C107.879 104.873 108.527 105.765 109.164 106.346C111.203 108.222 117.305 114.441 118.103 115.048C118.269 115.172 110.978 110.592 108.147 109.281C106.241 108.405 104.652 108.206 107.515 110.399C109.56 111.952 111.867 113.205 114.11 114.597C115.111 115.215 116.786 116.597 117.771 117.22C118.21 117.489 108.639 112.146 108.04 113.06C107.633 113.689 113.489 117.102 115.357 118.521C117.225 119.94 125.687 126.423 126.758 125.874Z" fill="#E8A6BD"/>
</g>
<defs>
<clipPath id="clip0_202_64">
<rect width="192" height="79.9586" fill="white" transform="translate(0 15.4758)"/>
</clipPath>
<clipPath id="clip1_202_64">
<rect width="143.701" height="187.718" fill="white" transform="translate(23.3029)"/>
</clipPath>
</defs>
</svg>
