<svg width="600" height="108" viewBox="0 0 600 108" fill="none" xmlns="http://www.w3.org/2000/svg">
<rect width="600" height="108" fill="white"/>
<g clip-path="url(#clip0_30_164)">
<path d="M276.309 58.0674C275.931 58.7575 275.691 59.5133 275.601 60.2936H275.274C275.274 60.2936 274.744 57.2648 270.81 57.8532C268.338 58.5067 267.494 61.709 269.297 63.4906C270.355 64.3038 271.551 64.9227 272.829 65.3182C273.61 65.5188 278.175 67.2163 277.038 70.8498C276.711 73.4502 275.197 75.0284 272.651 75.6927C270.618 76.2956 268.427 76.0834 266.549 75.1016L265.615 74.5267C265.943 74.101 266.145 73.1709 266.298 72.0863H266.65C267.221 73.2251 268.04 74.1769 269.297 74.703C270.608 75.0528 271.818 75.1287 272.829 74.627C274.367 74.101 274.946 72.7506 274.998 70.923C275.047 69.0249 273.534 68.1192 271.72 67.4169C268.693 66.4923 266.497 65.0389 266.169 62.3598C266.169 59.9574 267.104 58.2924 269.07 57.3786C270.734 56.6546 272.425 56.6791 274.14 56.9285C274.97 57.0584 275.734 57.4591 276.309 58.0674Z" fill="#314249"/>
<path d="M278.83 57.0044L283.848 65.1175L285.665 63.7156L281.906 57.0803C280.894 57.3419 279.828 57.3156 278.83 57.0044Z" fill="#314249"/>
<path d="M285.665 69.9983L287.959 68.1463L288.161 75.6574H285.463L285.665 69.9983Z" fill="#314249"/>
<path d="M298.525 56.7278C298.715 63.04 298.569 69.3578 298.088 75.6547H300.03C299.803 71.1725 299.757 66.2672 299.828 61.0583L313.999 76.0289H314.404C314.253 69.0954 314.303 62.612 314.808 57.0804H312.896C313.098 61.8618 313.189 66.626 313.169 71.3731L298.929 56.7116L298.525 56.7278Z" fill="#314249"/>
<path d="M326.567 56.7278H325.95C322.773 63.938 319.747 70.6464 317.275 75.6276L319.244 75.6791L322.041 68.4934H329.127L332.014 75.6547L334.94 75.6791C332.569 70.8118 329.643 64.0329 326.567 56.7278ZM322.557 67.3437L325.609 60.4834L328.785 67.3437H322.557Z" fill="#314249"/>
<path d="M295.75 56.8526C297.061 55.326 296.433 54 296.433 54C296.433 54 298.891 57.8559 294.062 61.785L290.51 64.7379C289.907 65.1907 285.047 68.8947 283.829 70.3454C282.518 71.8748 283.173 73.2007 283.173 73.2007C283.173 73.2007 280.671 69.3449 285.523 65.4158C287.981 63.4119 288.716 62.7367 289.019 62.5117L295.75 56.8526Z" fill="#6B62A8"/>
<path d="M322.331 79.1337H322.079C320.741 82.0866 319.482 84.866 318.446 86.9187L319.28 86.9431L320.438 83.9901H323.415L324.625 86.9431H325.86C324.857 84.9419 323.617 82.1625 322.331 79.1337ZM320.667 83.5129L321.951 80.6847L323.29 83.5129H320.667Z" fill="#314249"/>
<path d="M266.145 79.0334C265.792 82.0622 265.413 85.1832 265.036 86.8427H265.792L266.322 81.2108L269.349 86.8671H269.524L272.728 81.1159L273.274 86.8726L274.206 86.7993L273.307 78.9466L269.827 85.091H269.625L266.145 79.0334Z" fill="#314249"/>
<path d="M279.513 79.2177C279.639 82.0947 279.691 84.8226 279.513 86.8753H283.698V86.2245C282.941 86.4767 281.786 86.4767 280.494 86.4523V83.1387C281.434 83.0749 282.378 83.0749 283.318 83.1387V82.4879C282.258 82.6126 281.149 82.7374 280.494 82.6615V79.7601C281.174 79.6841 282.406 79.7845 283.646 79.8848V79.2177H279.513Z" fill="#314249"/>
<path d="M294.567 79.6326C293.908 79.3419 293.192 79.2002 292.472 79.2178L288.891 79.2422V86.9187H291.917C291.917 86.9187 295.851 87.1437 296.23 83.8383C296.61 80.5329 294.567 79.6326 294.567 79.6326ZM295.171 83.9901C295.094 85.0911 294.288 85.7906 293.204 86.3167C292.119 86.8427 289.926 86.417 289.926 86.417V79.7845C290.723 79.6365 291.536 79.5855 292.346 79.6326C293.734 79.7086 294.438 80.3105 294.867 81.086C295.296 81.8616 295.222 82.8892 295.171 83.9901Z" fill="#314249"/>
<path d="M301.639 79.2177C301.666 81.5199 301.666 84.123 301.639 86.8753H302.732C302.631 84.2993 302.631 81.7467 302.732 79.2177H301.639Z" fill="#314249"/>
<path d="M314.663 85.7255L314.639 86.4007C313.956 86.7585 313.203 86.964 312.432 87.0029C311.661 87.0418 310.891 86.9131 310.175 86.6258C308.208 85.9994 307.78 84.3237 307.856 82.2873C308.512 80.0095 309.872 79.2584 311.538 79.1581C312.654 79.0453 313.78 79.1739 314.841 79.535L314.477 80.4108C314.154 80.0259 313.723 79.7432 313.24 79.5974C312.722 79.438 312.173 79.4027 311.639 79.4941C311.104 79.5855 310.599 79.8012 310.164 80.1234C309.829 80.3701 309.552 80.6859 309.351 81.0491C309.151 81.4124 309.032 81.8144 309.003 82.2276C308.93 83.6295 309.003 84.9039 309.888 85.6822C310.174 86.0369 310.546 86.313 310.97 86.4839C311.394 86.6549 311.855 86.7149 312.309 86.6583C312.744 86.6672 313.177 86.5892 313.581 86.429C313.986 86.2688 314.354 86.0296 314.663 85.7255Z" fill="#314249"/>
<path d="M330.728 79.234L330.752 86.8942H334.964V86.2679C333.929 86.3682 332.872 86.4441 331.736 86.4685V79.2828L330.728 79.234Z" fill="#314249"/>
<path d="M334.964 86.2679C333.929 86.3682 332.872 86.4441 331.736 86.4685L334.964 86.2679Z" fill="#314249"/>
</g>
<defs>
<clipPath id="clip0_30_164">
<rect width="69.9286" height="33" fill="white" transform="translate(265.036 54)"/>
</clipPath>
</defs>
</svg>
